<?xml version="1.0" encoding="UTF-8"?>
<svg width="71px" height="62px" viewBox="0 0 71 62" version="1.1" xmlns="http://www.w3.org/2000/svg" xmlns:xlink="http://www.w3.org/1999/xlink">
    <title>9A7495F3-DD00-40E3-AF4D-5920F2484ADA</title>
    <g id="Page-1" stroke="none" stroke-width="1" fill="none" fill-rule="evenodd">
        <g id="Artboard-Copy" transform="translate(-137.000000, -25.000000)" fill="#1D1D1B" fill-rule="nonzero">
            <g id="Vodafone-Logo-Copy-3" transform="translate(137.500000, 25.000000)">
                <g id="Drei-Logo" transform="translate(11.180328, 0.000000)">
                    <path d="M40.1839386,25.968408 C39.6781812,25.6048271 39.0826974,25.1654508 38.8162102,24.9046081 C38.9603705,24.6594574 39.2148942,24.2790001 39.4442945,23.9583501 C40.7761324,22.0477736 43.2729171,18.435058 43.2729171,13.2774193 C43.2729171,10.315774 42.1794522,7.10157626 39.5441898,4.63230492 C36.9113202,2.16244144 32.7462238,0.446978836 26.6382533,0.448162526 C20.8434276,0.449051366 14.3182296,2.33327712 8.68012601,5.63274471 C6.15103978,7.11726827 4.06938887,8.7166692 2.61103688,10.2527099 C1.15776938,11.7884546 0.314940029,13.2575822 0.311051888,14.5221215 C0.309855537,15.1349982 0.548527582,15.6987263 0.999252858,16.1407674 C1.82353877,16.9437247 3.28368528,17.3158918 5.14700212,17.5133743 C7.01061805,17.7067117 9.28518057,17.7129293 11.7317186,17.7129293 L12.1683867,17.7129293 C15.9401827,17.7129293 18.6044566,17.813299 20.3086587,18.0593379 C21.1601616,18.1825054 21.7723943,18.3435706 22.1513385,18.5336512 C22.5356663,18.7302454 22.6576941,18.9173653 22.6597877,19.1299476 C22.6663676,19.2181782 22.5628833,19.4150685 22.3286975,19.6421586 C21.5142815,20.4507413 19.3758039,21.650144 17.4526695,22.9679769 C16.4890087,23.6288179 15.5761928,24.3222272 14.8963663,25.0304402 C14.2198298,25.7371729 13.7619264,26.4619662 13.7550474,27.2104456 L13.7550474,27.2104456 L13.7550474,27.2456786 L13.7550474,27.2456786 C13.7634218,28.1946012 14.2709738,28.9558119 15.045312,29.5450025 C17.3838793,31.3205685 22.2299986,31.7859995 24.7638702,32.241956 C26.3266038,32.523524 27.1562733,33.0736327 27.6043068,33.6720017 C28.051443,34.2739236 28.1339912,34.9469036 28.1345894,35.5162572 C28.1339912,37.6660629 27.3279497,39.5645002 25.880963,40.8627922 C24.596381,42.0325873 23.04591,42.7896528 20.7863019,42.7929097 C20.6986692,42.7929097 20.6080456,42.7911332 20.5168238,42.7893568 C20.5706596,42.3609352 20.596082,41.941396 20.596082,41.5334036 C20.5972784,39.0037329 19.590848,36.8927131 17.883655,35.4280266 C16.1776583,33.9618598 13.7780771,33.1378811 10.9953645,33.1378811 C7.56034138,33.1369929 4.80394844,34.5486818 2.91670458,36.641937 C1.02826437,38.7360804 0.0014960414,41.5052764 3.01163583e-07,44.2345022 C-0.000896660795,48.5293763 2.00179508,52.8429032 5.90160058,56.076642 C9.80379878,59.3100847 15.600718,61.4640354 23.1906685,61.4640354 C29.2077163,61.4640354 35.2774037,59.4969085 39.8704946,56.0813792 C43.6757884,53.2440858 48.2237171,48.0725315 48.222222,39.5890745 C48.2231189,31.8259697 42.9579777,27.9888286 40.1839386,25.968408 L40.1839386,25.968408 Z M16.2338875,26.5170356 C17.0743242,25.6859511 18.8108279,24.5084581 20.1067753,23.6954343 C21.3787956,22.8859634 22.5192174,22.1656112 23.3548686,21.4422983 C24.1863327,20.721354 24.7315697,19.982053 24.7342615,19.1299472 C24.736056,18.4622965 24.4728588,17.8476434 23.9808594,17.3585264 C23.0946623,16.4960579 21.5256477,16.0910264 19.5699127,15.8751872 C17.6135795,15.6626048 15.2633477,15.6552029 12.8248849,15.6552029 C12.6017655,15.6552029 12.3789451,15.6552029 12.1561246,15.6552029 C10.1468529,15.6552029 8.5452378,15.6264836 7.26723569,15.5758547 C9.04172353,14.8928081 11.0967557,13.8070985 13.3345305,12.6239801 C16.9651572,10.7018567 20.9872897,8.56803923 24.7770311,7.61704413 C23.9016011,8.59912718 23.3348298,9.7156286 23.3312407,10.679355 C23.3312407,10.9138469 23.4042181,11.1672877 23.5890544,11.364178 C23.7741897,11.5622527 24.0652021,11.6898613 24.4567081,11.6892691 C25.1332446,11.6871966 25.887544,11.4319794 26.7611795,11.1560368 C27.9449689,10.7705463 29.314791,10.3290974 30.8221934,10.3290974 C32.1360861,10.3299856 33.5537622,10.6609983 35.0671464,11.6641027 C34.0628096,11.7283511 33.2400191,12.0193935 32.7243917,12.4211682 C32.1662939,12.8469251 32.0287136,13.3333774 32.0323026,13.6679429 C32.0376862,14.2192359 32.4259021,14.6355183 32.9107234,15.1862191 C33.6898471,16.0537208 34.7109328,17.1947965 34.7121292,19.0301697 C34.7127274,20.3716886 34.193511,21.7964048 33.4233599,22.8782654 C33.4260517,22.8009896 33.4275471,22.7219374 33.4275471,22.6411088 C33.4245563,21.7096547 33.2187839,20.6571056 32.7028574,20.0611052 C32.3909089,19.712032 31.9775695,19.512477 31.5106935,19.5151417 C30.7160173,19.5219514 30.0305081,20.1218008 29.0091233,20.9531813 C28.2814427,21.5456287 27.3862729,22.2991414 26.251833,23.0049858 C21.4706156,25.9852837 18.9089287,27.1426435 17.090475,27.2883128 C16.4187238,27.3421985 15.4122934,27.3309477 16.2338875,26.5170356 Z M20.6134302,44.765663 C23.3046221,44.7677356 25.549575,43.9550077 27.2866769,42.3778124 C29.1410212,40.7058729 30.1959038,38.2046253 30.1959038,35.5162579 C30.1994928,34.2309933 29.791238,33.158311 29.0426213,32.3319637 C33.0542858,33.2811824 37.2196814,35.3205519 39.5364154,38.390857 C38.4967862,38.0574757 37.7709002,37.9659883 37.0327515,37.9659883 C36.2832375,37.976647 35.6889501,38.7479243 35.6865574,39.6317103 C35.6877537,40.0947727 35.8633183,40.6185306 36.0768669,41.2743383 C36.4106489,42.2919505 36.8413353,43.6053423 36.8413353,45.1748397 C36.840139,46.6199852 36.4785418,48.2827464 35.3261566,50.1397332 C35.2929578,48.6424783 34.884703,47.4466286 34.3610003,46.8041443 C33.9497546,46.3088096 33.5100955,46.1832735 33.2139986,46.185346 C32.7363554,46.1835696 32.3607012,46.4195419 32.0526408,46.7786818 C31.7412904,47.1372294 31.4727095,47.6227936 31.1661446,48.1749748 C30.0616134,50.1364764 28.3254088,53.2621476 22.8882919,54.8799053 C23.3802913,54.0399385 23.634815,53.1813189 23.6354132,52.4926469 C23.6354132,52.2202572 23.5956345,51.9727379 23.5074036,51.7628202 C23.341709,51.3521632 22.9789155,51.1040518 22.5673707,51.1067165 C22.5646789,51.1067165 22.554809,51.1067165 22.554809,51.1067165 C21.9623161,51.12833 21.2672361,51.3151538 20.466279,51.5425399 C19.2154939,51.8880603 17.6973243,52.3102642 16.0275171,52.3102642 C14.2987897,52.3081917 12.4103494,51.8623017 10.4686715,50.4070896 C11.1446099,50.3049434 11.7382992,50.0737083 12.1719765,49.7042058 C12.5290873,49.3995439 12.753104,49.0066515 12.7543004,48.5933298 C12.7453278,47.9635767 12.2455521,47.5324905 11.6751917,47.014358 C10.8440267,46.2383436 9.8522516,45.3255422 9.85314825,43.7895014 C9.85314825,43.3456839 9.93509892,42.8467964 10.1333941,42.2780349 C10.3116504,42.763303 10.5679687,43.2065283 10.8993579,43.576623 C11.4069099,44.1184415 12.0149554,44.4518228 12.6089437,44.4530071 C13.233439,44.4612972 13.6034106,44.1646293 13.7607308,43.79187 C13.9222382,43.4205911 13.9165555,42.9921695 13.9177519,42.6611569 C13.9174528,42.2806996 14.0960082,41.9174147 14.3810389,41.6470976 C14.6663686,41.3770765 15.0536873,41.2059448 15.4571567,41.2065369 C16.371169,41.2071291 17.0632581,41.7095696 17.5474813,42.4624901 C18.026919,43.2165949 18.2793491,44.2170347 18.2787509,45.1541144 C18.2787509,45.7376796 18.1815474,46.2954862 17.9898321,46.7538114 L17.7813679,47.2509225 L18.2117552,46.9210942 C19.0303585,46.2928215 19.6713036,45.399265 19.9644097,44.749971 C20.1833419,44.7603337 20.4001806,44.765663 20.6134302,44.765663 Z M2.83744629,15.1317415 C2.55660286,14.9671234 2.37655201,14.7903662 2.37655201,14.5224177 C2.37655201,13.7899264 3.07940831,12.6183548 4.37954292,11.3372353 C8.27336682,7.47285516 17.2938545,2.4955265 26.6385533,2.50026033 C31.3617476,2.49967156 35.2077175,3.65762364 37.7628245,5.81660767 C39.9778686,7.68395714 41.1933614,10.3362033 41.1942586,13.2774194 C41.1942586,17.800864 39.042322,20.9191333 37.7320184,22.8060237 C37.0635572,23.761164 36.6648732,24.3222274 36.6585923,24.9599745 C36.657396,25.4650796 36.9023489,25.8905404 37.2998366,26.2937955 C37.6988197,26.7008996 38.258712,27.1082998 38.9478103,27.613701 C41.6686119,29.6086591 46.1399743,32.8651958 46.1429652,39.588779 C46.1405725,47.2296047 42.0628096,51.8714796 38.6295809,54.4363834 C34.3968905,57.5961033 28.7626748,59.4119356 23.1900711,59.4107519 C9.26873098,59.405422 2.07267882,51.744167 2.07267882,44.2342068 C2.07267882,42.0053489 2.91371368,39.7300071 4.44982855,38.0180974 C5.98773795,36.3044112 8.212652,35.1509002 11.0082255,35.1503081 L11.0145064,35.1503081 C12.5757446,35.1503081 14.5485277,35.5118165 16.1127568,36.5483776 C17.6784814,37.5873072 18.8500082,39.279972 18.8535973,42.025482 C18.8535973,42.1054225 18.8524009,42.185659 18.8509055,42.2655994 C18.7115306,41.9573846 18.515329,41.614825 18.2455518,41.2885496 C17.6802759,40.60195 16.7788253,39.9952909 15.4577546,39.9961791 C13.9638111,39.9997321 12.6923889,41.2086092 12.6887998,42.6614526 C12.6887998,42.9353227 12.6561993,43.1005329 12.6215051,43.183138 C12.6089434,43.2139299 12.597279,43.2311023 12.5903999,43.2408728 C12.2252138,43.233767 11.7912374,42.983583 11.4460901,42.4923934 C11.0952601,41.9929137 10.8401382,41.2553891 10.8401382,40.3117958 C10.8401382,40.1231956 10.8503072,39.9263053 10.8724397,39.7240856 L10.9190974,39.2832289 L10.6200096,39.6133533 C9.2119043,41.1644939 8.70375415,42.5664123 8.70435232,43.7732169 C8.70794138,45.7504105 10.0511446,47.1588426 10.8467181,47.8969593 C10.9938693,48.0278248 11.1730229,48.1924429 11.3132951,48.3387043 C11.3829825,48.4112428 11.4448937,48.4787481 11.4849715,48.5320417 C11.5056085,48.560465 11.5217593,48.5826707 11.5295356,48.5983627 C11.5331246,48.6045803 11.5352182,48.6084292 11.5367137,48.6110939 C11.5247502,48.6833364 11.3784962,48.8722327 11.006431,49.0196784 C10.6059525,49.1854808 9.9662037,49.3169384 9.05249051,49.3169384 C8.73485928,49.3169384 8.3840293,49.3015425 7.99880423,49.2660134 L7.64976879,49.2337411 L7.8746828,49.5016896 C10.5407513,52.6477901 13.4858688,53.5072978 16.0352931,53.5049292 C17.9204434,53.5049292 19.592045,53.0403865 20.797967,52.7070052 C21.305519,52.5637046 21.8803657,52.3505301 22.1965015,52.3549712 C22.3289974,52.3555634 22.3846277,52.385467 22.4082556,52.4233647 C22.4378653,52.4606702 22.463886,52.5409067 22.4632878,52.6614096 C22.4656805,53.0264709 22.2479446,53.6908648 21.8821602,54.3724311 C21.5178713,55.0563659 21.0076275,55.7702045 20.4468379,56.2776782 L20.1070742,56.5841166 L20.5631831,56.5257897 C28.3508309,55.5345282 30.9487074,51.0664497 32.2311958,48.7629808 C32.4432491,48.3771941 32.6448342,48.0213111 32.8239878,47.7690546 C32.9986551,47.5105805 33.1739205,47.3853405 33.2145965,47.3995521 C33.2860785,47.3968875 33.4063117,47.4658731 33.5340222,47.6556576 C33.9171537,48.2170172 34.2386731,49.6239689 34.2362804,51.0895436 C34.2362804,51.7255143 34.177061,52.3756965 34.044266,52.9790988 L33.9467634,53.425581 L34.2847326,53.1138132 C37.2244664,50.4198204 38.0314053,47.586672 38.0299098,45.2281329 C38.0299098,43.4208868 37.5600429,41.8913597 37.2337382,40.9015787 C37.0533882,40.3538386 36.9029471,39.8629451 36.9053398,39.6323021 C36.9053398,39.4345235 36.9382394,39.3350421 36.9792144,39.2835249 C37.0154041,39.2355607 37.0803061,39.1997355 37.2056239,39.1668711 C38.4483337,39.170424 39.9216401,39.6092082 41.6901462,40.4417731 L42.0367889,40.6049108 L41.8869459,40.2558375 C39.4870655,34.6976083 34.1432641,32.3109421 28.9382393,31.0093933 C26.3316892,30.3577307 23.755347,29.9743126 21.5863624,29.6033298 C20.007478,29.3336048 18.6421422,29.0662484 17.6494699,28.7139184 C17.4837752,28.6425641 17.3204733,28.5688413 17.1610595,28.4965988 C20.1351885,28.1262081 23.7260364,26.0507174 26.9128168,24.0255596 C28.1088689,23.2655332 29.0378355,22.4948482 29.7819659,21.8807872 C30.1710792,21.5625058 30.5311808,21.2667262 30.8365495,21.055032 C31.13803,20.8394889 31.3961427,20.71869 31.5106933,20.7249076 C31.6189631,20.726388 31.7089886,20.7699111 31.8043976,20.8723533 C32.0972045,21.184121 32.2709745,22.0477739 32.2655909,22.9889985 C32.2655909,23.7460641 32.1644993,24.5605684 31.9793639,25.2104545 L31.8764777,25.5755159 L32.1979971,25.3703354 C34.7285789,23.7579071 35.9428753,21.3188355 35.9425762,19.0301703 C35.9437725,16.7349914 34.657396,15.3043536 33.8292219,14.386815 C33.7024087,14.2446987 33.5543602,14.0780081 33.4359214,13.9323388 C33.3399143,13.8168693 33.2633478,13.6972547 33.2418135,13.6549159 C33.2564688,13.596885 33.3294462,13.4772705 33.4697184,13.3783812 C34.0008983,12.9846005 34.9047416,12.7415223 35.9542406,12.7421145 C36.4881123,12.7421145 37.05937,12.8048825 37.6404975,12.9375244 L38.0379852,13.0269393 L37.7873496,12.7086579 C35.6111869,9.93857363 33.1102148,9.14124176 30.8790199,9.14390644 C29.1236737,9.14449859 27.533723,9.62976667 26.3747579,10.0045985 C25.8103792,10.1872772 25.0273674,10.4268025 24.6929872,10.4235456 C24.651414,10.4247299 24.6200098,10.4202888 24.6017655,10.4158477 C24.6098408,10.0128886 24.9017505,9.33073021 25.4619419,8.61008195 C26.0331996,7.87078091 26.876029,7.07818625 27.9572314,6.43807058 L28.3505318,6.20357862 L27.891432,6.17160244 C27.6913423,6.15739081 27.4870654,6.14969284 27.2800966,6.14969284 C22.8024533,6.15531828 17.0222828,9.37454941 12.75759,11.5548509 C10.0975032,12.9153188 4.51532878,16.1206343 2.83744629,15.1317415 Z" id="Shape"></path>
                </g>
            </g>
        </g>
    </g>
</svg>