<?xml version="1.0" encoding="UTF-8"?>
<svg width="76px" height="67px" viewBox="0 0 76 67" version="1.1" xmlns="http://www.w3.org/2000/svg" xmlns:xlink="http://www.w3.org/1999/xlink">
    <title>0580EE1D-46DA-4439-B878-3C38F8367F2F-615-00007A8B3E60FA91</title>
    <defs>
        <filter id="filter-1">
            <feColorMatrix in="SourceGraphic" type="matrix" values="0 0 0 0 0.000000 0 0 0 0 0.000000 0 0 0 0 0.000000 0 0 0 1.000000 0"></feColorMatrix>
        </filter>
        <path d="M8.49574227,16.994564 C8.47190815,16.994564 8.44835443,16.994564 8.42452031,16.9942829 C3.77840907,16.9567477 0.0392561963,13.1475631 0.0811762079,8.48730076 C0.118749998,3.85164008 3.87991438,0.121321465 8.49279806,0.121321465 C8.51677238,0.121321465 8.5407467,0.121321465 8.56486122,0.121602627 C13.2132157,0.159840678 16.9471811,3.97014992 16.9105887,8.62928764 C16.8702109,13.2655106 13.1105888,16.994564 8.49574227,16.994564" id="path-2"></path>
        <linearGradient x1="-0.00042508416%" y1="50.0003333%" x2="100.000082%" y2="50.0003333%" id="linearGradient-4">
            <stop stop-color="#89BCBF" offset="0%"></stop>
            <stop stop-color="#9FD4D7" offset="100%"></stop>
        </linearGradient>
        <path d="M11.091336,26.157851 C10.7475803,26.157851 10.3755401,26.1209515 9.91458543,26.027435 C7.77195848,25.5914004 5.83488482,24.6748264 4.17239562,23.2151808 C3.14196877,22.3118456 2.2658469,21.2923189 1.60409975,20.0891395 C0.631642281,18.3235937 0.0728117923,16.4442507 0.0736509825,14.4053383 C0.078552722,10.3558218 0.112858277,5.95843538 0.092695012,1.91258072 C0.0897545358,1.36415735 0.318551584,1.35429869 0.732178561,1.00558367 C1.60718025,0.265902236 2.60134123,0.0663347186 3.41977375,0.0663347186 C4.38004924,0.0663347186 5.09850558,0.341109754 5.09850558,0.341109754 C5.09850558,0.341109754 6.07362348,0.866294843 7.90988081,1.42767531 L7.99571471,2.17115938 C7.99571471,2.17115938 6.11296985,3.81628864 5.7489109,4.11402028 C5.51661328,4.30034902 5.47978732,4.35048736 5.48202768,4.66061275 C5.4988304,8.15353723 5.46872553,11.5102713 5.5259948,15.0012241 C5.55231906,16.5670615 6.09966769,18.0193835 6.90423797,19.3505847 C7.94502651,21.0719074 9.3536546,22.4200092 11.1631676,23.3132041 C12.3168144,23.8802181 13.5250701,24.2337216 14.8219601,24.3225904 C15.7486301,24.3859675 15.9630048,24.5317349 16.2394096,24.5317349 C16.4570048,24.5317349 16.7132463,24.4413169 17.3856352,24.1493596 C15.8305434,25.1826884 15.1658557,25.5988648 13.3017339,25.8716681 C12.3525202,26.0105344 11.7780072,26.157851 11.091336,26.157851 M17.514456,24.4323019 C17.4742695,24.4323019 17.4800105,24.3613195 17.4864515,24.2872387 C17.5071749,24.3275184 17.5358795,24.3685023 17.5816669,24.3985008 C17.551142,24.4221616 17.5295785,24.4323019 17.514456,24.4323019 M17.4864513,24.2872398 C17.4494853,24.2151307 17.4382835,24.1454159 17.4020176,24.1454159 C17.3969768,24.1454159 17.3916559,24.1466834 17.385635,24.1493593 C17.4143396,24.1302053 17.4357631,24.1218959 17.4513056,24.1218959 C17.4993334,24.1218959 17.4941525,24.1994977 17.4874314,24.2770994 C17.4871514,24.2804795 17.4867313,24.2838597 17.4864513,24.2872398" id="path-5"></path>
        <linearGradient x1="-0.00079436042%" y1="49.9996761%" x2="99.9992002%" y2="49.9996761%" id="linearGradient-7">
            <stop stop-color="#89BCBF" offset="0%"></stop>
            <stop stop-color="#9FD4D7" offset="100%"></stop>
        </linearGradient>
        <path d="M10.1492572,32.6179217 C9.95690975,32.6179217 9.76372596,32.6149907 9.57026341,32.6089891 C8.23066069,32.5678154 7.15685991,31.9119677 5.88653016,31.5345656 C4.23150543,31.0415981 3.37221391,30.7438916 1.98187605,29.7077108 C1.66436331,29.4697409 1.35897682,29.2159995 1.0569355,28.9582104 C1.42964361,29.1562627 1.78757721,29.342591 2.15164362,29.51566 C3.17735754,30.0036029 3.34154982,29.8583087 4.46622512,30.05343 C5.23589386,30.1876981 6.00514445,30.2715807 6.77801897,30.2715807 C7.15239967,30.2715807 7.52789543,30.2519011 7.90436687,30.2086339 C10.5731186,29.9057631 13.0148167,28.9950573 15.1543341,27.3451795 C17.1065218,25.8436664 18.5286388,23.9447926 19.3992203,21.6396253 C19.949362,20.1819378 20.2219937,18.6825183 20.204989,17.1113589 C20.1750219,13.9637365 20.1895176,10.3678095 20.2134914,7.21851216 C20.2134914,6.82938607 19.8644782,6.63077545 19.8644782,6.63077545 C19.8644782,6.63077545 17.9959199,5.20211886 17.5524056,4.73190158 L17.5257836,4.1741728 C18.7881686,2.75207608 19.8922153,2.06705785 20.0986404,0.0714607458 C21.9906149,1.69565738 23.3721717,2.37662803 25.2642856,3.96104672 C25.6992976,4.32798089 25.6498169,4.34640436 25.6436841,4.94167794 C25.617759,8.95129563 25.6158076,13.3420838 25.6397814,17.3504454 C25.6498169,19.0371701 25.3504239,20.6552256 24.7848107,22.227362 C23.2357165,26.5436189 20.3022778,29.5864229 16.1373971,31.4220708 C14.2344114,32.2624324 12.2257739,32.6179217 10.1492572,32.6179217 M1.05693552,28.9582102 C0.780261777,28.8112412 0.495503863,28.6578518 0.194020081,28.4988795 C0.229144405,28.4944132 0.260923556,28.475571 0.291308884,28.4567289 C0.325875679,28.4350952 0.358769887,28.4136012 0.392639771,28.4136012 C0.411735138,28.4136012 0.431109269,28.4204402 0.451180312,28.4378867 C0.653284558,28.6106765 0.854413128,28.7852808 1.05693552,28.9582102 M0.178966799,28.4998568 C0.13924286,28.4998568 0.0953374533,28.4797585 0.0444629347,28.4203009 C0.0947799244,28.4465404 0.144678767,28.4727799 0.194020081,28.4988798 C0.189141703,28.4995777 0.18398456,28.4998568 0.178966799,28.4998568" id="path-8"></path>
        <linearGradient x1="0%" y1="49.9999999%" x2="99.9995199%" y2="49.9999999%" id="linearGradient-10">
            <stop stop-color="#89BCBF" offset="0%"></stop>
            <stop stop-color="#9FD4D7" offset="100%"></stop>
        </linearGradient>
    </defs>
    <g id="Page-1" stroke="none" stroke-width="1" fill="none" fill-rule="evenodd">
        <g id="logo-/-white-copy" transform="translate(-36.000000, -22.000000)" filter="url(#filter-1)">
            <g transform="translate(36.000000, 22.000000)" id="logo-/-white">
                <g id="Group-5" transform="translate(29.857143, 0.000000)">
                    <mask id="mask-3" fill="white">
                        <use xlink:href="#path-2"></use>
                    </mask>
                    <g id="Clip-4"></g>
                    <path d="M8.49574227,16.994564 C8.47190815,16.994564 8.44835443,16.994564 8.42452031,16.9942829 C3.77840907,16.9567477 0.0392561963,13.1475631 0.0811762079,8.48730076 C0.118749998,3.85164008 3.87991438,0.121321465 8.49279806,0.121321465 C8.51677238,0.121321465 8.5407467,0.121321465 8.56486122,0.121602627 C13.2132157,0.159840678 16.9471811,3.97014992 16.9105887,8.62928764 C16.8702109,13.2655106 13.1105888,16.994564 8.49574227,16.994564" id="Fill-3" fill="url(#linearGradient-4)" mask="url(#mask-3)"></path>
                </g>
                <path d="M46.8211652,8.40498261 C46.7810023,13.0068234 43.0292339,16.707045 38.4384765,16.6698247 C33.8489655,16.6312157 30.155364,12.8671085 30.1967734,8.26498999 C30.2341664,3.6618993 33.9878737,-0.0374890374 38.5771077,0.000286749122 C43.1688346,0.0383402988 46.8573118,3.80091975 46.8211652,8.40498261" id="Fill-6" fill="#FFFFFF"></path>
                <g id="Group-9" transform="translate(22.732143, 13.948454)">
                    <mask id="mask-6" fill="white">
                        <use xlink:href="#path-5"></use>
                    </mask>
                    <g id="Clip-8"></g>
                    <path d="M11.091336,26.157851 C10.7475803,26.157851 10.3755401,26.1209515 9.91458543,26.027435 C7.77195848,25.5914004 5.83488482,24.6748264 4.17239562,23.2151808 C3.14196877,22.3118456 2.2658469,21.2923189 1.60409975,20.0891395 C0.631642281,18.3235937 0.0728117923,16.4442507 0.0736509825,14.4053383 C0.078552722,10.3558218 0.112858277,5.95843538 0.092695012,1.91258072 C0.0897545358,1.36415735 0.318551584,1.35429869 0.732178561,1.00558367 C1.60718025,0.265902236 2.60134123,0.0663347186 3.41977375,0.0663347186 C4.38004924,0.0663347186 5.09850558,0.341109754 5.09850558,0.341109754 C5.09850558,0.341109754 6.07362348,0.866294843 7.90988081,1.42767531 L7.99571471,2.17115938 C7.99571471,2.17115938 6.11296985,3.81628864 5.7489109,4.11402028 C5.51661328,4.30034902 5.47978732,4.35048736 5.48202768,4.66061275 C5.4988304,8.15353723 5.46872553,11.5102713 5.5259948,15.0012241 C5.55231906,16.5670615 6.09966769,18.0193835 6.90423797,19.3505847 C7.94502651,21.0719074 9.3536546,22.4200092 11.1631676,23.3132041 C12.3168144,23.8802181 13.5250701,24.2337216 14.8219601,24.3225904 C15.7486301,24.3859675 15.9630048,24.5317349 16.2394096,24.5317349 C16.4570048,24.5317349 16.7132463,24.4413169 17.3856352,24.1493596 C15.8305434,25.1826884 15.1658557,25.5988648 13.3017339,25.8716681 C12.3525202,26.0105344 11.7780072,26.157851 11.091336,26.157851 M17.514456,24.4323019 C17.4742695,24.4323019 17.4800105,24.3613195 17.4864515,24.2872387 C17.5071749,24.3275184 17.5358795,24.3685023 17.5816669,24.3985008 C17.551142,24.4221616 17.5295785,24.4323019 17.514456,24.4323019 M17.4864513,24.2872398 C17.4494853,24.2151307 17.4382835,24.1454159 17.4020176,24.1454159 C17.3969768,24.1454159 17.3916559,24.1466834 17.385635,24.1493593 C17.4143396,24.1302053 17.4357631,24.1218959 17.4513056,24.1218959 C17.4993334,24.1218959 17.4941525,24.1994977 17.4874314,24.2770994 C17.4871514,24.2804795 17.4867313,24.2838597 17.4864513,24.2872398" id="Fill-7" fill="url(#linearGradient-7)" mask="url(#mask-6)"></path>
                </g>
                <g id="Group-12" transform="translate(28.160714, 11.226804)">
                    <mask id="mask-9" fill="white">
                        <use xlink:href="#path-8"></use>
                    </mask>
                    <g id="Clip-11"></g>
                    <path d="M10.1492572,32.6179217 C9.95690975,32.6179217 9.76372596,32.6149907 9.57026341,32.6089891 C8.23066069,32.5678154 7.15685991,31.9119677 5.88653016,31.5345656 C4.23150543,31.0415981 3.37221391,30.7438916 1.98187605,29.7077108 C1.66436331,29.4697409 1.35897682,29.2159995 1.0569355,28.9582104 C1.42964361,29.1562627 1.78757721,29.342591 2.15164362,29.51566 C3.17735754,30.0036029 3.34154982,29.8583087 4.46622512,30.05343 C5.23589386,30.1876981 6.00514445,30.2715807 6.77801897,30.2715807 C7.15239967,30.2715807 7.52789543,30.2519011 7.90436687,30.2086339 C10.5731186,29.9057631 13.0148167,28.9950573 15.1543341,27.3451795 C17.1065218,25.8436664 18.5286388,23.9447926 19.3992203,21.6396253 C19.949362,20.1819378 20.2219937,18.6825183 20.204989,17.1113589 C20.1750219,13.9637365 20.1895176,10.3678095 20.2134914,7.21851216 C20.2134914,6.82938607 19.8644782,6.63077545 19.8644782,6.63077545 C19.8644782,6.63077545 17.9959199,5.20211886 17.5524056,4.73190158 L17.5257836,4.1741728 C18.7881686,2.75207608 19.8922153,2.06705785 20.0986404,0.0714607458 C21.9906149,1.69565738 23.3721717,2.37662803 25.2642856,3.96104672 C25.6992976,4.32798089 25.6498169,4.34640436 25.6436841,4.94167794 C25.617759,8.95129563 25.6158076,13.3420838 25.6397814,17.3504454 C25.6498169,19.0371701 25.3504239,20.6552256 24.7848107,22.227362 C23.2357165,26.5436189 20.3022778,29.5864229 16.1373971,31.4220708 C14.2344114,32.2624324 12.2257739,32.6179217 10.1492572,32.6179217 M1.05693552,28.9582102 C0.780261777,28.8112412 0.495503863,28.6578518 0.194020081,28.4988795 C0.229144405,28.4944132 0.260923556,28.475571 0.291308884,28.4567289 C0.325875679,28.4350952 0.358769887,28.4136012 0.392639771,28.4136012 C0.411735138,28.4136012 0.431109269,28.4204402 0.451180312,28.4378867 C0.653284558,28.6106765 0.854413128,28.7852808 1.05693552,28.9582102 M0.178966799,28.4998568 C0.13924286,28.4998568 0.0953374533,28.4797585 0.0444629347,28.4203009 C0.0947799244,28.4465404 0.144678767,28.4727799 0.194020081,28.4988798 C0.189141703,28.4995777 0.18398456,28.4998568 0.178966799,28.4998568" id="Fill-10" fill="url(#linearGradient-10)" mask="url(#mask-9)"></path>
                </g>
                <path d="M22.6300813,15.0417606 C22.221783,15.3897978 22.0497511,15.3997337 22.0535714,15.9429907 C22.0729199,19.9653596 22.0688966,24.3352058 22.0636246,28.3563152 C22.0620985,30.3828234 22.6300813,32.2504967 23.5935987,34.006216 C24.2507883,35.2017453 25.1273186,36.215769 26.1461914,37.1116813 C27.793813,38.5612062 29.7164083,39.4733518 31.8378113,39.9063341 C33.2065748,40.1852396 34.5985071,40.218266 36.0087525,40.0093318 C37.8561531,39.7396625 39.5223653,39.0654193 41.0631607,38.0392205 C41.2967912,37.8827647 41.5085014,37.6895041 41.7321429,37.5121969 C41.5941011,37.4213741 41.502397,37.4103187 41.426925,37.443625 C39.9144316,38.1021947 38.3464441,38.3241436 36.7040943,38.2113499 C35.419127,38.1243056 34.2230891,37.7712305 33.0794932,37.2076819 C31.287448,36.3221254 29.890105,34.9828751 28.8599946,33.2726371 C28.0624048,31.9489205 27.5209205,30.505553 27.4927572,28.9506512 C27.4368468,25.4806356 27.4668137,21.9169985 27.4505816,18.4460032 C27.4469745,18.1374299 27.4874853,18.0880302 27.7140402,17.9023264 C28.0751684,17.606068 28.5031671,17.2314418 28.85611,16.9248277 C29.4233991,16.436708 29.9894395,15.9462094 30.5517341,15.4586495 C29.2896581,14.0329148 28.4501702,12.2129618 28.2361015,10.2061856 C26.3683067,11.8166445 24.5131369,13.4462756 22.6300813,15.0417606" id="Fill-13" fill="#FFFFFF"></path>
                <path d="M54.2363565,15.2220074 C52.3234726,13.6382032 50.191096,11.8297767 48.2787757,10.2061856 C48.0697082,12.2027979 47.2268164,14.0099679 45.9508561,15.4322506 C46.9008175,16.2372056 47.948973,17.1243872 48.8869595,17.8984897 C49.1857684,18.1447507 49.1306839,18.0915617 49.1282889,18.4799392 C49.1058888,21.629399 49.0933504,25.2278243 49.1226536,28.3767256 C49.1406864,29.948105 48.8647003,31.4475885 48.3075155,32.9064473 C47.4279947,35.2113046 45.987767,37.1111715 44.0178263,38.6110738 C41.8548785,40.2630045 39.3874866,41.1744772 36.6879226,41.477138 C35.5219905,41.6085051 34.3705691,41.5194379 33.2152031,41.3205027 C32.0777289,41.1256159 30.9870273,40.8144392 29.950424,40.3280599 C29.264333,40.0043189 28.6009238,39.6342294 27.8214286,39.2306351 C28.0080961,39.4495337 28.1038952,39.5955592 28.232097,39.7044501 C28.7408187,40.1362444 29.2410876,40.5794862 29.7791126,40.9759607 C31.18412,42.010843 32.7419834,42.7648427 34.4139605,43.2584814 C35.6992189,43.6363887 37.0184297,43.8376972 38.3730017,43.8779031 C40.6782394,43.9471465 42.9088102,43.6074907 45.0099112,42.6908527 C49.2207069,40.8538074 52.1842821,37.8115633 53.7505984,33.4944581 C54.322294,31.9208451 54.625,30.3011628 54.6150449,28.6164252 C54.5908134,24.6057501 54.5932083,20.2136777 54.6209619,16.2034215 C54.625,15.6081512 54.677737,15.590282 54.2363565,15.2220074" id="Fill-14" fill="#FFFFFF"></path>
                <path d="M39.9872313,28.2371134 L36.7625632,28.2371134 L34.6071429,34.0725983 C34.6071429,34.0725983 35.7540525,35.3814433 38.3443239,35.3814433 C41.3162161,35.3814433 42.4107143,34.1134396 42.4107143,34.1134396 L39.9872313,28.2371134" id="Fill-15" fill="#FFFFFF"></path>
                <path d="M41.3927372,26.7322103 C41.3775375,28.5166268 39.9228907,29.9524526 38.1426156,29.9380367 C36.3619296,29.9229343 34.9293291,28.463082 34.9465828,26.6781163 C34.9604131,24.8930133 36.4157446,23.4589723 38.1957459,23.4743493 C39.9767057,23.4879415 41.4079368,24.9476565 41.3927372,26.7322103" id="Fill-16" fill="#FFFFFF"></path>
                <g id="Group" transform="translate(0.000000, 46.948454)" fill="#FFFFFE">
                    <path d="M4.00314387,7.17015109 L9.52939262,1.65732736 C9.62715378,1.55446361 9.67526071,1.43658427 9.67526071,1.2888141 C9.67526071,1.1456749 9.62715378,1.03046188 9.52348475,0.927177129 C9.31628734,0.721449617 9.00542091,0.717941303 8.7669962,0.946964018 L1.02965716,8.66651702 L1.02965716,0.513196119 C1.02965716,0.369495593 0.981550227,0.254422905 0.878443847,0.151138152 C0.77463415,0.0472920679 0.658446061,0 0.513562608,0 C0.3696638,0 0.254741683,0.0463097401 0.152479284,0.149875159 C0.0490915777,0.254422905 0,0.369495593 0,0.513196119 L0,16.1529777 C0,16.2961169 0.0481069329,16.4125929 0.150088004,16.5136323 C0.35855138,16.7227278 0.671949761,16.7213245 0.877177876,16.5150356 C0.981550227,16.4111895 1.02965716,16.2961169 1.02965716,16.1529777 L1.02965716,10.1365004 L3.26156565,7.91124726 L9.25284808,16.0266784 C9.3635503,16.1827282 9.50125991,16.2509298 9.70353409,16.2509298 C9.80326454,16.2509298 9.8983531,16.215987 9.99484829,16.1448384 C10.1317139,16.039589 10.1985291,15.8986951 10.1985291,15.7053168 C10.1985291,15.6041371 10.1674425,15.5148856 10.1013306,15.4215644 L4.00314387,7.17015109" id="Fill-17"></path>
                    <path d="M57.0817731,10.416646 L48.1178846,10.416646 L48.189795,10.0420182 C48.3533172,9.19231371 48.7684554,8.43219116 49.4239515,7.78296625 C50.2953195,6.92002654 51.3635615,6.48381985 52.5999696,6.48381985 C53.836237,6.48381985 54.9047604,6.92058381 55.7750026,7.78296625 C56.42881,8.43163388 56.8453554,9.19105984 57.0107071,10.0417395 L57.0817731,10.416646 Z M52.5999695,5.46331079 C51.080986,5.46331079 49.7676014,6.00163802 48.6969672,7.06310673 C47.6246442,8.12443613 47.0808836,9.42372176 47.0808836,10.9264126 C47.0808836,12.4501406 47.6094459,13.7141786 48.6969672,14.7905544 C49.7676014,15.8516052 51.0804231,16.3899324 52.5999695,16.3899324 C53.9713326,16.3899324 55.1812845,15.9470384 56.1946437,15.0750431 C56.2761234,14.9889441 56.3242513,14.8708019 56.3242513,14.7240994 C56.3242513,14.5806012 56.2761234,14.4666386 56.1740979,14.3666078 C55.9798977,14.1728155 55.6878937,14.165153 55.4862351,14.323001 C54.6922658,15.0145788 53.7167615,15.3703986 52.5999695,15.3703986 C51.3625763,15.3703986 50.2946158,14.9327987 49.4239515,14.0697198 C48.7684554,13.4211915 48.3533172,12.661069 48.189795,11.8115039 L48.1178846,11.4364581 L57.601751,11.4364581 C57.7474012,11.4364581 57.8619512,11.3888112 57.9658061,11.2861333 C58.0699424,11.1841521 58.1176481,11.0699108 58.1176481,10.9264126 C58.1176481,9.42469699 57.5743097,8.12485408 56.5017053,7.06310673 C55.4300859,6.00163802 54.1168421,5.46331079 52.5999695,5.46331079 L52.5999695,5.46331079 Z" id="Fill-18"></path>
                    <path d="M67.6595513,5.85508924 C67.0211797,5.59436786 66.31284,5.46331079 65.5494755,5.46331079 C64.043276,5.46331079 62.7258926,6.0153939 61.6343344,7.10382212 L61.0952589,7.64350982 L61.0952589,5.97249743 C61.0952589,5.8304377 61.0477755,5.71651137 60.9448484,5.61330915 C60.8413626,5.51149968 60.7275423,5.46331079 60.5831371,5.46331079 C60.4392905,5.46331079 60.3256098,5.51149968 60.2249172,5.61261278 C60.1201745,5.71651137 60.0735291,5.83001988 60.0735291,5.97249743 L60.0735291,15.8771246 C60.0735291,16.0209949 60.1201745,16.1346427 60.2222637,16.2346416 C60.4279783,16.4421602 60.7401114,16.4407675 60.9428932,16.2360343 C61.0477755,16.1335285 61.0952589,16.02002 61.0952589,15.8771246 L61.0952589,10.9246717 C61.0952589,9.70184388 61.5340608,8.64530946 62.3976989,7.78222696 C63.2618957,6.91956229 64.3227294,6.48349463 65.5494755,6.48349463 C66.174859,6.48349463 66.7586248,6.59588895 67.2861088,6.81663863 C67.5194755,6.93098278 67.7244918,6.88557938 67.8874713,6.72416053 C67.9890019,6.62151541 68.0367646,6.5080069 68.0367646,6.36483298 C68.0367646,6.2181772 67.9890019,6.10118683 67.8874713,5.9958955 C67.8246257,5.93837524 67.7465576,5.88767942 67.6595513,5.85508924" id="Fill-19"></path>
                    <path d="M43.1303384,14.2613166 C42.2390772,15.1547042 41.1468659,15.6075787 39.8860301,15.6075787 C38.6244946,15.6075787 37.532843,15.1547042 36.6422815,14.2608952 C35.7521398,13.367648 35.3007018,12.2719839 35.3007018,11.0028397 C35.3007018,9.73664534 35.7521398,8.64098126 36.6422815,7.74618893 C37.5318635,6.85392505 38.6236549,6.40133151 39.8860301,6.40133151 C41.1477055,6.40133151 42.2396369,6.85392505 43.1303384,7.74576752 C44.0197804,8.64140267 44.4710785,9.73664534 44.4710785,11.003542 C44.4710785,12.2710006 44.0197804,13.3666647 43.1303384,14.2613166 Z M39.8860298,5.32322608 C38.3299261,5.32322608 36.9841484,5.88299805 35.88564,6.98582608 C35.7874039,7.08415491 35.6995232,7.18613595 35.6102432,7.28755511 C35.6127621,6.93862824 35.6152809,6.67721403 35.6176599,6.67454511 L35.6176599,6.02234404 C35.6176599,5.82919813 35.5514695,5.66779839 35.4129315,5.53041897 C35.139074,5.25313168 34.7058279,5.25523872 34.4316906,5.53041897 C34.2946919,5.66709604 34.2279418,5.82821485 34.2279418,6.02234404 L34.2279418,18.508279 C34.2279418,18.6599863 34.2780394,18.7807903 34.3857911,18.8903567 C34.6004551,19.1052754 34.9276287,19.1052754 35.1408932,18.8903567 C35.2496246,18.7793856 35.3007017,18.6599863 35.3007017,18.508279 L35.3007017,14.4346561 L35.8429591,14.9772908 C36.9989817,16.1398185 38.3080959,16.6835769 39.8860298,16.6835769 C41.4428331,16.6835769 42.7884709,16.1243668 43.8878189,15.0205555 C44.9873069,13.9163227 45.5441177,12.5650037 45.5441177,11.003542 C45.5441177,9.44278253 44.9873069,8.09132303 43.8878189,6.98624749 C42.7884709,5.88299805 41.4422733,5.32322608 39.8860298,5.32322608 L39.8860298,5.32322608 Z" id="Fill-20"></path>
                    <path d="M31.2385164,10.4159494 L22.2934085,10.4159494 L22.3664206,10.0413216 C22.529715,9.19175646 22.9449013,8.43163392 23.5982193,7.7829663 C24.4666423,6.9200266 25.5324789,6.48340196 26.7661029,6.48340196 C28.0014118,6.48340196 29.0659846,6.9200266 29.9348289,7.7829663 C30.5874449,8.43024074 31.0016483,9.19036328 31.1657851,10.0413216 L31.2385164,10.4159494 Z M11.5121859,10.4159494 L11.584496,10.0420182 C11.7477904,9.19175646 12.1621342,8.43163392 12.8161543,7.7829663 C13.6847177,6.9200266 14.7513967,6.48340196 15.9847399,6.48340196 C17.2189256,6.48340196 18.2851834,6.9200266 19.1533256,7.7829663 C19.80538,8.43024074 20.2204258,9.19105987 20.3852647,10.0413216 L20.4585577,10.4159494 L11.5121859,10.4159494 Z M26.7661016,5.46331079 C25.2304603,5.46331079 23.9575221,5.9865916 22.8720285,7.06254946 C22.3415674,7.58931323 21.9364906,8.17890972 21.6692943,8.81448135 L21.3744377,9.51009932 L21.0815468,8.81448135 C20.8136485,8.17890972 20.4089929,7.59000983 19.8785318,7.06254946 C18.8082023,6.00052347 17.4986177,5.46331079 15.9847395,5.46331079 C14.4486769,5.46331079 13.1758792,5.9865916 12.0899644,7.06254946 C11.021039,8.12443613 10.4779411,9.42372176 10.4779411,10.9264126 C10.4779411,12.4498619 11.0051729,13.7141786 12.0899644,14.7897185 C13.1758792,15.8662336 14.4486769,16.3899324 15.9847395,16.3899324 C17.3542783,16.3899324 18.5610843,15.9470384 19.5720213,15.0750431 C19.6537387,14.9878296 19.7026007,14.8702447 19.7026007,14.7240994 C19.7026007,14.5806012 19.6537387,14.4673352 19.551943,14.3657719 C19.3569164,14.1718403 19.0713267,14.1638992 18.8629614,14.3235583 C18.0731668,15.0143001 17.0999996,15.3703986 15.9847395,15.3703986 C14.7506944,15.3703986 13.6847175,14.9322415 12.8161541,14.0697198 C12.1628361,13.4209128 11.7477903,12.661069 11.5844959,11.8115039 L11.5121858,11.4364581 L21.0008123,11.4324179 L21.2792412,11.4324179 L21.3154664,11.7059004 C21.4734253,12.8831429 21.9963044,13.9202309 22.8720285,14.7897185 C23.9565393,15.8662336 25.2297582,16.3899324 26.7661016,16.3899324 C28.1355,16.3899324 29.3431485,15.9470384 30.3538046,15.0750431 C30.4351008,14.9883869 30.4828395,14.8702447 30.4828395,14.7240994 C30.4828395,14.5806012 30.4351008,14.4663599 30.3321818,14.3657719 C30.1403846,14.1718403 29.8505827,14.1627846 29.6437618,14.3235583 C28.8543885,15.0143001 27.8808001,15.3703986 26.7661016,15.3703986 C25.5314948,15.3703986 24.4666412,14.9322415 23.5982183,14.0690232 C22.9449002,13.4202163 22.529714,12.661069 22.3664196,11.8115039 L22.2934075,11.4364581 L31.758305,11.4364581 C31.9027848,11.4364581 32.0184809,11.3883932 32.1195746,11.2869692 C32.2240381,11.1841521 32.2720576,11.0693535 32.2720576,10.9264126 C32.2720576,9.42372176 31.7292406,8.12443613 30.6597535,7.06254946 C29.5899856,6.00052347 28.2806818,5.46331079 26.7661016,5.46331079 L26.7661016,5.46331079 Z" id="Fill-21"></path>
                    <path d="M75.7567918,12.1313512 C75.593541,11.781497 75.364517,11.456363 75.0681904,11.1562285 C74.4968125,10.5887803 73.697245,10.2248201 72.6661506,10.0637894 C71.8161061,9.93446207 71.206488,9.70150523 70.8366011,9.36505857 C70.6352492,9.17064854 70.4924395,8.96115498 70.4083111,8.73518125 C70.3244608,8.50934719 70.2933124,8.2695469 70.3166737,8.01647867 C70.3557482,7.52207386 70.6153643,7.11006986 71.0973297,6.77753374 C71.5781826,6.45058412 72.1242524,6.30337998 72.7342877,6.33536266 C73.326941,6.36734535 73.8335191,6.58717392 74.2534659,6.99191549 C74.3827872,7.12194116 74.4915284,7.23688329 74.5809409,7.33869717 C74.6479655,7.41201991 74.7629642,7.44889078 74.9255197,7.44889078 C75.0651311,7.44889078 75.1852749,7.4079697 75.2860899,7.32459127 C75.3864877,7.24163181 75.437382,7.14191288 75.437382,7.02697074 C75.437382,6.93982142 75.4126301,6.8611915 75.3621531,6.79191897 C75.2727406,6.66692114 75.1662243,6.54485623 75.0427433,6.42474658 C74.3256355,5.78355662 73.4975617,5.46331079 72.5576875,5.46331079 C71.7463004,5.46331079 71.0361454,5.68062545 70.4252758,6.11315982 C69.670067,6.63982664 69.2865527,7.33394864 69.2752892,8.19636381 C69.2752892,8.51409571 69.3418967,8.81855969 69.4766412,9.10877811 C69.6113857,9.39969484 69.8017522,9.66910356 70.04788,9.91826123 C70.5180257,10.3931133 71.2621101,10.708471 72.2802724,10.8654515 C73.1091805,10.9810919 73.7724739,11.2623719 74.2708478,11.7098502 C74.7354312,12.1525799 74.9668191,12.6641632 74.9668191,13.2451587 C74.9668191,13.6786707 74.8693414,14.0436085 74.6727173,14.3410893 C74.4769276,14.6391288 74.2313561,14.8940127 73.9343341,15.1058805 C73.3859004,15.4889744 72.7620987,15.6798929 72.0625119,15.6798929 C71.5249245,15.6662059 71.0774448,15.5791963 70.7190995,15.4199812 C70.3610323,15.2613247 70.0558061,15.0624455 69.8039771,14.8215279 C69.7087243,14.7253005 69.624874,14.633263 69.5527044,14.5452757 C69.440904,14.4166467 69.2919758,14.3521227 69.1082839,14.3521227 C68.9622759,14.3521227 68.8394902,14.3931834 68.7428468,14.4768412 C68.6445348,14.5593816 68.5955873,14.6599385 68.5955873,14.7810258 C68.5955873,14.8775325 68.6320198,14.9653801 68.7039113,15.0434514 C68.816407,15.1783653 68.9194469,15.2875812 69.0145607,15.3759875 C69.8711408,16.1453876 70.8897202,16.5300177 72.0711333,16.5300177 C73.0107294,16.5300177 73.8566023,16.2702457 74.6051365,15.7493051 C75.0255004,15.4590866 75.3604844,15.1229193 75.6091151,14.742479 C75.858163,14.3617594 75.9881797,13.8536676 75.9999994,13.2170865 C75.9999994,12.844188 75.9186521,12.4820435 75.7567918,12.1313512" id="Fill-22"></path>
                </g>
            </g>
        </g>
    </g>
</svg>