<?xml version="1.0" encoding="UTF-8"?>
<svg width="22px" height="30px" viewBox="0 0 22 30" version="1.1" xmlns="http://www.w3.org/2000/svg" xmlns:xlink="http://www.w3.org/1999/xlink">
    <title>833DE911-7C6F-4ABA-A254-1464B2C7F668</title>
    <defs>
        <filter id="filter-1">
            <feColorMatrix in="SourceGraphic" type="matrix" values="0 0 0 0 0.000000 0 0 0 0 0.000000 0 0 0 0 0.000000 0 0 0 1.000000 0"></feColorMatrix>
        </filter>
        <path d="M5.41693723,10.9600818 C5.40174045,10.9600818 5.38672246,10.9600818 5.37152568,10.9599005 C2.40913673,10.9356935 0.025029992,8.47908589 0.0517584477,5.47360384 C0.0757157258,2.48398784 2.47385714,0.0782422625 5.41505998,0.0782422625 C5.43034616,0.0782422625 5.44563233,0.0782422625 5.4610079,0.0784235888 C8.42482713,0.103083954 10.8056263,2.56041684 10.7822948,5.56517358 C10.7565497,8.55515223 8.35939158,10.9600818 5.41693723,10.9600818" id="path-2"></path>
        <linearGradient x1="-0.00042508416%" y1="50.0003333%" x2="100.000082%" y2="50.0003333%" id="linearGradient-4">
            <stop stop-color="#89BCBF" offset="0%"></stop>
            <stop stop-color="#9FD4D7" offset="100%"></stop>
        </linearGradient>
        <path d="M7.07190373,16.8696398 C6.85272302,16.8696398 6.61550788,16.8458427 6.32160038,16.7855323 C4.95544832,16.5043263 3.72035829,15.9132122 2.66034499,14.9718621 C2.00333852,14.389286 1.44471786,13.731776 1.02278382,12.9558253 C0.402738985,11.817195 0.0464252432,10.605175 0.046960316,9.2902459 C0.0500856951,6.67864436 0.071959127,3.84269559 0.0591029058,1.2334556 C0.0572280402,0.879768112 0.203110439,0.873410093 0.466841532,0.648517894 C1.02474796,0.171484844 1.65863109,0.0427803821 2.18046868,0.0427803821 C2.79274622,0.0427803821 3.25083838,0.219987442 3.25083838,0.219987442 C3.25083838,0.219987442 3.87257952,0.558688174 5.04338844,0.920731917 L5.09811666,1.40021735 C5.09811666,1.40021735 3.89766701,2.46118899 3.66554079,2.65320115 C3.51742641,2.7733677 3.49394595,2.80570276 3.49537442,3.00570786 C3.50608794,5.25835384 3.48689288,7.42316833 3.52340812,9.67454271 C3.54019263,10.6843777 3.88918547,11.6210047 4.40218441,12.4795188 C5.06579755,13.5896289 5.96394745,14.4590425 7.11770402,15.035079 C7.85327629,15.4007559 8.62366749,15.6287363 9.45057249,15.6860493 C10.041423,15.7269222 10.1781096,15.8209301 10.354347,15.8209301 C10.493087,15.8209301 10.6564682,15.762618 11.0851874,15.5743298 C10.0936514,16.240741 9.66984249,16.5091402 8.48126698,16.6850756 C7.87604251,16.7746329 7.50972949,16.8696398 7.07190373,16.8696398 M11.171359,15.7632512 C11.142659,15.7632512 11.146759,15.7143192 11.151359,15.6632512 C11.166159,15.6910182 11.186659,15.7192706 11.219359,15.7399503 C11.197559,15.7562609 11.182159,15.7632512 11.171359,15.7632512 M11.1584864,15.6632512 C11.1320864,15.6167469 11.1240864,15.5717866 11.0981864,15.5717866 C11.0945864,15.5717866 11.0907864,15.572604 11.0864864,15.5743298 C11.1069864,15.5619771 11.1222864,15.5566182 11.1333864,15.5566182 C11.1676864,15.5566182 11.1639864,15.6066649 11.1591864,15.6567115 C11.1589864,15.6588914 11.1586864,15.6610713 11.1584864,15.6632512" id="path-5"></path>
        <linearGradient x1="-0.00079436042%" y1="49.9996761%" x2="99.9992002%" y2="49.9996761%" id="linearGradient-7">
            <stop stop-color="#89BCBF" offset="0%"></stop>
            <stop stop-color="#9FD4D7" offset="100%"></stop>
        </linearGradient>
        <path d="M6.47122839,21.0358497 C6.34858645,21.0358497 6.22541129,21.0339594 6.10205839,21.0300889 C5.24791952,21.0035353 4.56325758,20.580568 3.75328758,20.337175 C2.69803371,20.019252 2.15014419,19.827256 1.26365629,19.1590054 C1.06120823,19.0055346 0.866491935,18.8418925 0.673908548,18.67564 C0.911549516,18.8033673 1.13977016,18.9235335 1.37190113,19.0351487 C2.02590258,19.3498313 2.13059258,19.2561286 2.84769242,19.3819656 C3.3384379,19.4685574 3.82891677,19.5226547 4.32170629,19.5226547 C4.56041371,19.5226547 4.7998321,19.509963 5.03987258,19.4820592 C6.741485,19.2867327 8.29832661,18.6994032 9.66249597,17.635369 C10.9072227,16.6670178 11.8139732,15.442402 12.3690613,13.9557606 C12.719835,13.0156732 12.8936666,12.0486722 12.8828244,11.0354049 C12.8637171,9.00544995 12.8729597,6.68637579 12.8882455,4.65534065 C12.8882455,4.40438665 12.6657126,4.2762993 12.6657126,4.2762993 C12.6657126,4.2762993 11.4743084,3.35493449 11.191521,3.05168341 L11.1745466,2.69199468 C11.979451,1.77486044 12.6833979,1.33308059 12.8150158,0.0460862432 C14.0213503,1.09355814 14.9022394,1.53272764 16.1086627,2.55454606 C16.386029,2.79118812 16.3544798,2.80306973 16.3505695,3.18697173 C16.3340395,5.77284204 16.3327953,8.60453564 16.3480811,11.1895958 C16.3544798,12.2773932 16.163585,13.3209046 15.8029466,14.3348019 C14.8152347,17.118429 12.9448563,19.0807848 10.2893029,20.2646252 C9.07594758,20.8065886 7.79522806,21.0358497 6.47122839,21.0358497 M0.673908548,18.67564 C0.497499677,18.5808571 0.31593629,18.4819337 0.123708387,18.3794098 C0.146103871,18.3765294 0.166366452,18.3643778 0.185740323,18.3522261 C0.207780323,18.3382742 0.228753871,18.3244124 0.250349516,18.3244124 C0.262524839,18.3244124 0.274877903,18.328823 0.287675323,18.3400745 C0.416538226,18.4515096 0.544779032,18.5641148 0.673908548,18.67564 M0.118284601,18.3878803 C0.0917235573,18.3878803 0.0623666141,18.3734803 0.0283498387,18.3308803 C0.0619938275,18.3496803 0.0953582264,18.3684803 0.128349839,18.3871803 C0.125087956,18.3876803 0.12163968,18.3878803 0.118284601,18.3878803" id="path-8"></path>
        <linearGradient x1="0%" y1="49.9999999%" x2="99.9995199%" y2="49.9999999%" id="linearGradient-10">
            <stop stop-color="#89BCBF" offset="0%"></stop>
            <stop stop-color="#9FD4D7" offset="100%"></stop>
        </linearGradient>
    </defs>
    <g id="Page-1" stroke="none" stroke-width="1" fill="none" fill-rule="evenodd">
        <g id="Artboard-Copy" transform="translate(-828.000000, -1735.000000)">
            <g id="logo-/-white-copy-3" transform="translate(822.000000, 1512.000000)" filter="url(#filter-1)">
                <g transform="translate(6.000000, 223.000000)" id="logo-/-white">
                    <g id="Group-5" transform="translate(5.285484, 0.000000)">
                        <mask id="mask-3" fill="white">
                            <use xlink:href="#path-2"></use>
                        </mask>
                        <g id="Clip-4"></g>
                        <path d="M5.41693723,10.9600818 C5.40174045,10.9600818 5.38672246,10.9600818 5.37152568,10.9599005 C2.40913673,10.9356935 0.025029992,8.47908589 0.0517584477,5.47360384 C0.0757157258,2.48398784 2.47385714,0.0782422625 5.41505998,0.0782422625 C5.43034616,0.0782422625 5.44563233,0.0782422625 5.4610079,0.0784235888 C8.42482713,0.103083954 10.8056263,2.56041684 10.7822948,5.56517358 C10.7565497,8.55515223 8.35939158,10.9600818 5.41693723,10.9600818" id="Fill-3" fill="url(#linearGradient-4)" mask="url(#mask-3)"></path>
                    </g>
                    <path d="M16.1018482,5.42051543 C16.0762401,8.38832036 13.6840896,10.7746559 10.7569946,10.7506519 C7.83069437,10.7257522 5.47563153,8.29821588 5.50203437,5.33023182 C5.5258764,2.36162078 7.9192631,-0.0241773142 10.8453867,0.000184929358 C13.7730999,0.0247263071 16.1248955,2.45127742 16.1018482,5.42051543" id="Fill-6" fill="#FFFFFF"></path>
                    <g id="Group-9" transform="translate(0.742540, 8.995594)">
                        <mask id="mask-6" fill="white">
                            <use xlink:href="#path-5"></use>
                        </mask>
                        <g id="Clip-8"></g>
                        <path d="M7.07190373,16.8696398 C6.85272302,16.8696398 6.61550788,16.8458427 6.32160038,16.7855323 C4.95544832,16.5043263 3.72035829,15.9132122 2.66034499,14.9718621 C2.00333852,14.389286 1.44471786,13.731776 1.02278382,12.9558253 C0.402738985,11.817195 0.0464252432,10.605175 0.046960316,9.2902459 C0.0500856951,6.67864436 0.071959127,3.84269559 0.0591029058,1.2334556 C0.0572280402,0.879768112 0.203110439,0.873410093 0.466841532,0.648517894 C1.02474796,0.171484844 1.65863109,0.0427803821 2.18046868,0.0427803821 C2.79274622,0.0427803821 3.25083838,0.219987442 3.25083838,0.219987442 C3.25083838,0.219987442 3.87257952,0.558688174 5.04338844,0.920731917 L5.09811666,1.40021735 C5.09811666,1.40021735 3.89766701,2.46118899 3.66554079,2.65320115 C3.51742641,2.7733677 3.49394595,2.80570276 3.49537442,3.00570786 C3.50608794,5.25835384 3.48689288,7.42316833 3.52340812,9.67454271 C3.54019263,10.6843777 3.88918547,11.6210047 4.40218441,12.4795188 C5.06579755,13.5896289 5.96394745,14.4590425 7.11770402,15.035079 C7.85327629,15.4007559 8.62366749,15.6287363 9.45057249,15.6860493 C10.041423,15.7269222 10.1781096,15.8209301 10.354347,15.8209301 C10.493087,15.8209301 10.6564682,15.762618 11.0851874,15.5743298 C10.0936514,16.240741 9.66984249,16.5091402 8.48126698,16.6850756 C7.87604251,16.7746329 7.50972949,16.8696398 7.07190373,16.8696398 M11.171359,15.7632512 C11.142659,15.7632512 11.146759,15.7143192 11.151359,15.6632512 C11.166159,15.6910182 11.186659,15.7192706 11.219359,15.7399503 C11.197559,15.7562609 11.182159,15.7632512 11.171359,15.7632512 M11.1584864,15.6632512 C11.1320864,15.6167469 11.1240864,15.5717866 11.0981864,15.5717866 C11.0945864,15.5717866 11.0907864,15.572604 11.0864864,15.5743298 C11.1069864,15.5619771 11.1222864,15.5566182 11.1333864,15.5566182 C11.1676864,15.5566182 11.1639864,15.6066649 11.1591864,15.6567115 C11.1589864,15.6588914 11.1586864,15.6610713 11.1584864,15.6632512" id="Fill-7" fill="url(#linearGradient-7)" mask="url(#mask-6)"></path>
                    </g>
                    <g id="Group-12" transform="translate(4.203831, 7.240356)">
                        <mask id="mask-9" fill="white">
                            <use xlink:href="#path-8"></use>
                        </mask>
                        <g id="Clip-11"></g>
                        <path d="M6.47122839,21.0358497 C6.34858645,21.0358497 6.22541129,21.0339594 6.10205839,21.0300889 C5.24791952,21.0035353 4.56325758,20.580568 3.75328758,20.337175 C2.69803371,20.019252 2.15014419,19.827256 1.26365629,19.1590054 C1.06120823,19.0055346 0.866491935,18.8418925 0.673908548,18.67564 C0.911549516,18.8033673 1.13977016,18.9235335 1.37190113,19.0351487 C2.02590258,19.3498313 2.13059258,19.2561286 2.84769242,19.3819656 C3.3384379,19.4685574 3.82891677,19.5226547 4.32170629,19.5226547 C4.56041371,19.5226547 4.7998321,19.509963 5.03987258,19.4820592 C6.741485,19.2867327 8.29832661,18.6994032 9.66249597,17.635369 C10.9072227,16.6670178 11.8139732,15.442402 12.3690613,13.9557606 C12.719835,13.0156732 12.8936666,12.0486722 12.8828244,11.0354049 C12.8637171,9.00544995 12.8729597,6.68637579 12.8882455,4.65534065 C12.8882455,4.40438665 12.6657126,4.2762993 12.6657126,4.2762993 C12.6657126,4.2762993 11.4743084,3.35493449 11.191521,3.05168341 L11.1745466,2.69199468 C11.979451,1.77486044 12.6833979,1.33308059 12.8150158,0.0460862432 C14.0213503,1.09355814 14.9022394,1.53272764 16.1086627,2.55454606 C16.386029,2.79118812 16.3544798,2.80306973 16.3505695,3.18697173 C16.3340395,5.77284204 16.3327953,8.60453564 16.3480811,11.1895958 C16.3544798,12.2773932 16.163585,13.3209046 15.8029466,14.3348019 C14.8152347,17.118429 12.9448563,19.0807848 10.2893029,20.2646252 C9.07594758,20.8065886 7.79522806,21.0358497 6.47122839,21.0358497 M0.673908548,18.67564 C0.497499677,18.5808571 0.31593629,18.4819337 0.123708387,18.3794098 C0.146103871,18.3765294 0.166366452,18.3643778 0.185740323,18.3522261 C0.207780323,18.3382742 0.228753871,18.3244124 0.250349516,18.3244124 C0.262524839,18.3244124 0.274877903,18.328823 0.287675323,18.3400745 C0.416538226,18.4515096 0.544779032,18.5641148 0.673908548,18.67564 M0.118284601,18.3878803 C0.0917235573,18.3878803 0.0623666141,18.3734803 0.0283498387,18.3308803 C0.0619938275,18.3496803 0.0953582264,18.3684803 0.128349839,18.3871803 C0.125087956,18.3876803 0.12163968,18.3878803 0.118284601,18.3878803" id="Fill-10" fill="url(#linearGradient-10)" mask="url(#mask-9)"></path>
                    </g>
                    <path d="M0.677465241,9.70068581 C0.417131753,9.92514084 0.307443162,9.93154868 0.309879032,10.2819043 C0.322215738,12.875998 0.31965044,15.6941858 0.316289016,18.2874672 C0.315315972,19.5943966 0.677465241,20.7988907 1.29180981,21.9311838 C1.71083792,22.7022008 2.26971899,23.3561619 2.91935852,23.9339508 C3.96989216,24.868774 5.19575063,25.4570321 6.54837019,25.7362697 C7.42110216,25.9161406 8.3086067,25.9374399 9.20778778,25.8026947 C10.3857017,25.6287804 11.4480888,25.1939495 12.4305094,24.5321366 C12.5794735,24.4312356 12.7144613,24.3065985 12.8570565,24.1922501 C12.7690402,24.133677 12.7105691,24.1265472 12.6624477,24.148027 C11.6980726,24.5727497 10.6983142,24.7158883 9.65114199,24.6431457 C8.83183898,24.5870094 8.06923789,24.3593053 7.34007413,23.9958632 C6.19745515,23.4247529 5.30650072,22.5610477 4.64969605,21.4580864 C4.14114789,20.6043991 3.79589421,19.673547 3.77793712,18.6707646 C3.74228833,16.4328928 3.76139538,14.1346429 3.75104573,11.8961394 C3.7487458,11.6971353 3.7745757,11.6652766 3.9190285,11.5455131 C4.14928608,11.354451 4.42218068,11.1128482 4.64721921,10.9151076 C5.00892619,10.600311 5.36983704,10.2839801 5.72835951,9.96954449 C4.92365215,9.05006403 4.38838952,7.87634561 4.25189799,6.58214167 C3.06098064,7.62075387 1.87811303,8.6717305 0.677465241,9.70068581" id="Fill-13" fill="#FFFFFF"></path>
                    <path d="M20.8298195,9.81692997 C19.6101531,8.79550791 18.2505367,7.62922308 17.0312296,6.58214167 C16.8979268,7.86979071 16.3604939,9.03526524 15.5469338,9.95251936 C16.152635,10.4716485 16.8209454,11.0438069 17.4190113,11.5430387 C17.6095336,11.7018566 17.5744114,11.6675541 17.5728844,11.9180253 C17.5586019,13.9491652 17.5506074,16.2698505 17.5692913,18.3006302 C17.5807891,19.3140394 17.4048187,20.2810816 17.0495542,21.2219243 C16.4887664,22.7083658 15.5704684,23.9336221 14.3144222,24.9009344 C12.9353135,25.9662925 11.3620893,26.5541166 9.6408308,26.7493077 C8.89742535,26.8340286 8.16327204,26.7765877 7.42660358,26.6482909 C6.70134311,26.5226052 6.0059051,26.3219221 5.34496052,26.0082478 C4.90750467,25.7994617 4.48451092,25.5607848 3.9875,25.3005 C4.10652033,25.4416714 4.16760246,25.5358457 4.24934472,25.6060713 C4.5737088,25.8845427 4.89268327,26.1703969 5.2357313,26.42609 C6.1315726,27.0935031 7.12487582,27.5797702 8.19093865,27.8981262 C9.01042729,28.141845 9.85156415,28.2716723 10.7152475,28.2976017 C12.1850812,28.342258 13.6073067,28.1232082 14.9469816,27.5320529 C17.6318107,26.3473113 19.5214043,24.3853166 20.5200971,21.6011425 C20.8846137,20.5862928 21.077621,19.5417323 21.0712735,18.4552165 C21.0558234,15.8686644 21.0573504,13.0361426 21.0750463,10.4498605 C21.077621,10.0659607 21.1112464,10.0544365 20.8298195,9.81692997" id="Fill-14" fill="#FFFFFF"></path>
                    <path d="M11.7444902,18.210592 L9.68842206,18.210592 L8.3141129,21.9739949 C8.3141129,21.9739949 9.04538949,22.8180911 10.6969624,22.8180911 C12.591859,22.8180911 13.2897177,22.0003341 13.2897177,22.0003341 L11.7444902,18.210592" id="Fill-15" fill="#FFFFFF"></path>
                    <path d="M12.6406493,17.2400545 C12.6309579,18.3908549 11.7034662,19.3168432 10.5683519,19.3075462 C9.43297567,19.2978064 8.51954085,18.3563229 8.53054188,17.2051684 C8.53936017,16.0539252 9.46728841,15.129088 10.6022281,15.1390049 C11.737779,15.1477707 12.6503407,16.0891656 12.6406493,17.2400545" id="Fill-16" fill="#FFFFFF"></path>
                </g>
            </g>
        </g>
    </g>
</svg>