<?xml version="1.0" encoding="UTF-8"?>
<svg width="51px" height="68px" viewBox="0 0 51 68" version="1.1" xmlns="http://www.w3.org/2000/svg" xmlns:xlink="http://www.w3.org/1999/xlink">
    <title>38669AA7-0C3A-4A9D-BA11-91B14975B710</title>
    <defs>
        <filter id="filter-1">
            <feColorMatrix in="SourceGraphic" type="matrix" values="0 0 0 0 0.000000 0 0 0 0 0.000000 0 0 0 0 0.000000 0 0 0 1.000000 0"></feColorMatrix>
        </filter>
        <path d="M12.6925872,25.4192602 C12.6566371,25.4192602 12.62111,25.4192602 12.5851599,25.4188366 C5.57722568,25.3622906 -0.0627032969,19.6238171 0.000526503084,12.6032091 C0.0572007051,5.61966315 5.73033062,0 12.6881463,0 C12.7243078,0 12.7604693,0 12.7968423,0.000423566094 C19.8081601,0.0580285549 25.4402647,5.79819626 25.3850707,12.81711 C25.3241671,19.8015031 19.6533634,25.4192602 12.6925872,25.4192602" id="path-2"></path>
        <linearGradient x1="-0.00042508416%" y1="50.0003333%" x2="100.000082%" y2="50.0003333%" id="linearGradient-4">
            <stop stop-color="#89BCBF" offset="0%"></stop>
            <stop stop-color="#9FD4D7" offset="100%"></stop>
        </linearGradient>
        <path d="M16.8579476,39.5410714 C16.3319737,39.5410714 15.7627221,39.485151 15.0574244,39.343429 C11.7790324,38.682629 8.8151536,37.2935829 6.27141112,35.0815248 C4.69477498,33.7125418 3.3542379,32.1674734 2.34171142,30.3440836 C0.853773109,27.668441 -0.00128258443,24.8203416 1.44408529e-06,21.7304183 C0.00750150061,15.5934726 0.0599917649,8.92933819 0.0291403443,2.79794183 C0.0246411787,1.96681928 0.374719105,1.95187871 1.00760172,1.42340942 C2.34642483,0.302439818 3.86757126,0 5.119839,0 C6.58913791,0 7.68843401,0.416415021 7.68843401,0.416415021 C7.68843401,0.416415021 9.18044299,1.21232051 11.9900647,2.06307924 L12.1213975,3.18981163 C12.1213975,3.18981163 9.24064611,5.68296584 8.68360657,6.13417104 C8.3281725,6.41654781 8.27182581,6.49253128 8.27525374,6.96251891 C8.30096326,12.2559628 8.25490037,17.3430133 8.34252698,22.633469 C8.38280522,25.0064584 9.22029275,27.2074177 10.4513501,29.2248215 C12.0438405,31.833445 14.199155,33.8764611 16.9678558,35.2300768 C18.7330284,36.089373 20.5817569,36.6250991 22.5661031,36.7597777 C23.983983,36.8558242 24.3119936,37.0767312 24.7349152,37.0767312 C25.0678534,37.0767312 25.4599235,36.9397048 26.4887327,36.4972505 C24.1093169,38.0632356 23.0922912,38.6939411 20.2400346,39.107368 C18.7876611,39.3178166 17.9086098,39.5410714 16.8579476,39.5410714 M26.6889592,36.927216 C26.6250911,36.927216 26.6342151,36.8190708 26.6444518,36.706205 C26.6773873,36.7675731 26.7230074,36.8300141 26.795777,36.8757183 C26.7472639,36.9117667 26.7129932,36.927216 26.6889592,36.927216 M26.649964,36.706205 C26.5912142,36.5969255 26.5734113,36.4912743 26.5157742,36.4912743 C26.5077628,36.4912743 26.4993064,36.4931952 26.4897373,36.4972505 C26.5353574,36.4682231 26.5694056,36.4556304 26.5941072,36.4556304 C26.6704374,36.4556304 26.6622035,36.573234 26.6515218,36.6908376 C26.6510767,36.6959601 26.6504091,36.7010826 26.649964,36.706205" id="path-5"></path>
        <linearGradient x1="-0.00079436042%" y1="49.9996761%" x2="99.9992002%" y2="49.9996761%" id="linearGradient-7">
            <stop stop-color="#89BCBF" offset="0%"></stop>
            <stop stop-color="#9FD4D7" offset="100%"></stop>
        </linearGradient>
        <path d="M15.0278598,49.4263393 C14.7418004,49.4263393 14.4544973,49.4218881 14.1667796,49.4127738 C12.1745211,49.3502459 10.5775636,48.3542496 8.68832798,47.781112 C6.22697363,47.0324721 4.94903447,46.5803632 2.88132268,45.0067782 C2.40911743,44.6453878 1.95494635,44.260046 1.50575021,43.8685573 C2.06004207,44.1693274 2.59236126,44.4522929 3.13380118,44.7151223 C4.65924388,45.4561317 4.9034308,45.2354822 6.57604898,45.5318011 C7.72070106,45.7357058 8.86473126,45.8630933 10.014151,45.8630933 C10.5709303,45.8630933 11.129368,45.8332071 11.6892567,45.7674997 C15.6582268,45.3075483 19.2895226,43.9245146 22.4714149,41.418945 C25.3747102,39.1386881 27.489684,36.2549833 28.7844136,32.7542653 C29.6025849,30.5405636 30.008043,28.263486 29.9827536,25.8774614 C29.9381864,21.0973578 29.9597445,15.6364413 29.9953983,10.8537942 C29.9953983,10.2628519 29.4763456,9.96123402 29.4763456,9.96123402 C29.4763456,9.96123402 26.6974239,7.79161977 26.037829,7.07752926 L25.9982368,6.23054034 C27.8756569,4.07088817 29.5175962,3.03059248 29.8245918,0 C32.6383382,2.46656908 34.6929907,3.50071796 37.5069443,5.90687866 C38.1538946,6.46411937 38.0803068,6.49209798 38.0711861,7.39610392 C38.0326303,13.4852675 38.0297282,20.1532916 38.065382,26.2405475 C38.0803068,28.8020743 37.6350492,31.2593172 36.7938688,33.6468255 C34.4900544,40.2016634 30.1274416,44.8225857 23.933427,47.6102729 C21.1033048,48.8864792 18.1160573,49.4263393 15.0278598,49.4263393 M1.50575021,43.8685573 C1.09428075,43.6453643 0.670788504,43.4124212 0.222421528,43.1709997 C0.274658457,43.164217 0.321920441,43.1356025 0.36710953,43.106988 C0.418517302,43.0741343 0.467437601,43.0414926 0.517808926,43.0414926 C0.546207574,43.0414926 0.5750208,43.0518786 0.604870474,43.0783735 C0.905440107,43.340779 1.20455871,43.6059399 1.50575021,43.8685573 M0.200034273,43.1799511 C0.140956793,43.1799511 0.0756606316,43.1480591 0,43.0537119 C0.074831474,43.0953487 0.14904108,43.1369855 0.222421528,43.1784008 C0.215166399,43.1795082 0.207496691,43.1799511 0.200034273,43.1799511" id="path-8"></path>
        <linearGradient x1="0%" y1="49.9999999%" x2="99.9995199%" y2="49.9999999%" id="linearGradient-10">
            <stop stop-color="#89BCBF" offset="0%"></stop>
            <stop stop-color="#9FD4D7" offset="100%"></stop>
        </linearGradient>
    </defs>
    <g id="Page-1" stroke="none" stroke-width="1" fill="none" fill-rule="evenodd">
        <g id="Artboard-Copy" transform="translate(-957.000000, -1041.000000)">
            <g id="Group-7" transform="translate(271.000000, 1041.000000)">
                <g id="logo-/-white-copy-2" transform="translate(551.500000, 0.000000)" filter="url(#filter-1)">
                    <g transform="translate(135.300000, 0.000000)" id="logo-/-white">
                        <g id="Group-5" transform="translate(11.896006, 0.000000)">
                            <mask id="mask-3" fill="white">
                                <use xlink:href="#path-2"></use>
                            </mask>
                            <g id="Clip-4"></g>
                            <path d="M12.6925872,25.4192602 C12.6566371,25.4192602 12.62111,25.4192602 12.5851599,25.4188366 C5.57722568,25.3622906 -0.0627032969,19.6238171 0.000526503084,12.6032091 C0.0572007051,5.61966315 5.73033062,0 12.6881463,0 C12.7243078,0 12.7604693,0 12.7968423,0.000423566094 C19.8081601,0.0580285549 25.4402647,5.79819626 25.3850707,12.81711 C25.3241671,19.8015031 19.6533634,25.4192602 12.6925872,25.4192602" id="Fill-3" fill="url(#linearGradient-4)" mask="url(#mask-3)"></path>
                        </g>
                        <path d="M38.5906451,12.8162639 C38.5293185,19.8333403 32.8005717,25.4755907 25.7907343,25.4188358 C18.7828,25.3599631 13.142871,19.6202974 13.2061008,12.6027974 C13.263198,5.58381496 18.9949053,-0.0571648293 26.0024166,0.000437246878 C33.0137344,0.0584628677 38.645839,5.79579907 38.5906451,12.8162639" id="Fill-6" fill="#FFFFFF"></path>
                        <g id="Group-9" transform="translate(2.112022, 20.811473)">
                            <mask id="mask-6" fill="white">
                                <use xlink:href="#path-5"></use>
                            </mask>
                            <g id="Clip-8"></g>
                            <path d="M16.8579476,39.5410714 C16.3319737,39.5410714 15.7627221,39.485151 15.0574244,39.343429 C11.7790324,38.682629 8.8151536,37.2935829 6.27141112,35.0815248 C4.69477498,33.7125418 3.3542379,32.1674734 2.34171142,30.3440836 C0.853773109,27.668441 -0.00128258443,24.8203416 1.44408529e-06,21.7304183 C0.00750150061,15.5934726 0.0599917649,8.92933819 0.0291403443,2.79794183 C0.0246411787,1.96681928 0.374719105,1.95187871 1.00760172,1.42340942 C2.34642483,0.302439818 3.86757126,0 5.119839,0 C6.58913791,0 7.68843401,0.416415021 7.68843401,0.416415021 C7.68843401,0.416415021 9.18044299,1.21232051 11.9900647,2.06307924 L12.1213975,3.18981163 C12.1213975,3.18981163 9.24064611,5.68296584 8.68360657,6.13417104 C8.3281725,6.41654781 8.27182581,6.49253128 8.27525374,6.96251891 C8.30096326,12.2559628 8.25490037,17.3430133 8.34252698,22.633469 C8.38280522,25.0064584 9.22029275,27.2074177 10.4513501,29.2248215 C12.0438405,31.833445 14.199155,33.8764611 16.9678558,35.2300768 C18.7330284,36.089373 20.5817569,36.6250991 22.5661031,36.7597777 C23.983983,36.8558242 24.3119936,37.0767312 24.7349152,37.0767312 C25.0678534,37.0767312 25.4599235,36.9397048 26.4887327,36.4972505 C24.1093169,38.0632356 23.0922912,38.6939411 20.2400346,39.107368 C18.7876611,39.3178166 17.9086098,39.5410714 16.8579476,39.5410714 M26.6889592,36.927216 C26.6250911,36.927216 26.6342151,36.8190708 26.6444518,36.706205 C26.6773873,36.7675731 26.7230074,36.8300141 26.795777,36.8757183 C26.7472639,36.9117667 26.7129932,36.927216 26.6889592,36.927216 M26.649964,36.706205 C26.5912142,36.5969255 26.5734113,36.4912743 26.5157742,36.4912743 C26.5077628,36.4912743 26.4993064,36.4931952 26.4897373,36.4972505 C26.5353574,36.4682231 26.5694056,36.4556304 26.5941072,36.4556304 C26.6704374,36.4556304 26.6622035,36.573234 26.6515218,36.6908376 C26.6510767,36.6959601 26.6504091,36.7010826 26.649964,36.706205" id="Fill-7" fill="url(#linearGradient-7)" mask="url(#mask-6)"></path>
                        </g>
                        <g id="Group-12" transform="translate(9.566486, 17.026246)">
                            <mask id="mask-9" fill="white">
                                <use xlink:href="#path-8"></use>
                            </mask>
                            <g id="Clip-11"></g>
                            <path d="M15.0278598,49.4263393 C14.7418004,49.4263393 14.4544973,49.4218881 14.1667796,49.4127738 C12.1745211,49.3502459 10.5775636,48.3542496 8.68832798,47.781112 C6.22697363,47.0324721 4.94903447,46.5803632 2.88132268,45.0067782 C2.40911743,44.6453878 1.95494635,44.260046 1.50575021,43.8685573 C2.06004207,44.1693274 2.59236126,44.4522929 3.13380118,44.7151223 C4.65924388,45.4561317 4.9034308,45.2354822 6.57604898,45.5318011 C7.72070106,45.7357058 8.86473126,45.8630933 10.014151,45.8630933 C10.5709303,45.8630933 11.129368,45.8332071 11.6892567,45.7674997 C15.6582268,45.3075483 19.2895226,43.9245146 22.4714149,41.418945 C25.3747102,39.1386881 27.489684,36.2549833 28.7844136,32.7542653 C29.6025849,30.5405636 30.008043,28.263486 29.9827536,25.8774614 C29.9381864,21.0973578 29.9597445,15.6364413 29.9953983,10.8537942 C29.9953983,10.2628519 29.4763456,9.96123402 29.4763456,9.96123402 C29.4763456,9.96123402 26.6974239,7.79161977 26.037829,7.07752926 L25.9982368,6.23054034 C27.8756569,4.07088817 29.5175962,3.03059248 29.8245918,0 C32.6383382,2.46656908 34.6929907,3.50071796 37.5069443,5.90687866 C38.1538946,6.46411937 38.0803068,6.49209798 38.0711861,7.39610392 C38.0326303,13.4852675 38.0297282,20.1532916 38.065382,26.2405475 C38.0803068,28.8020743 37.6350492,31.2593172 36.7938688,33.6468255 C34.4900544,40.2016634 30.1274416,44.8225857 23.933427,47.6102729 C21.1033048,48.8864792 18.1160573,49.4263393 15.0278598,49.4263393 M1.50575021,43.8685573 C1.09428075,43.6453643 0.670788504,43.4124212 0.222421528,43.1709997 C0.274658457,43.164217 0.321920441,43.1356025 0.36710953,43.106988 C0.418517302,43.0741343 0.467437601,43.0414926 0.517808926,43.0414926 C0.546207574,43.0414926 0.5750208,43.0518786 0.604870474,43.0783735 C0.905440107,43.340779 1.20455871,43.6059399 1.50575021,43.8685573 M0.200034273,43.1799511 C0.140956793,43.1799511 0.0756606316,43.1480591 0,43.0537119 C0.074831474,43.0953487 0.14904108,43.1369855 0.222421528,43.1784008 C0.215166399,43.1795082 0.207496691,43.1799511 0.200034273,43.1799511" id="Fill-10" fill="url(#linearGradient-10)" mask="url(#mask-9)"></path>
                        </g>
                        <path d="M1.38048913,22.8329969 C0.765997396,23.3583376 0.507088204,23.3733353 0.512837838,24.1933485 C0.541957425,30.264868 0.535902291,36.8608834 0.527967977,42.9305018 C0.525671202,45.9893918 1.38048913,48.8085304 2.83058941,51.4586811 C3.81966428,53.2632594 5.13884838,54.7938661 6.67225895,56.1461908 C9.15194086,58.33416 12.0454599,59.7109879 15.2381861,60.3645482 C17.2981845,60.785539 19.3930522,60.8353904 21.5154812,60.5200169 C24.2958318,60.1129676 26.8034926,59.0952387 29.1224003,57.5462545 C29.4740157,57.3100941 29.792641,57.018379 30.129223,56.7507446 C29.9214692,56.6136533 29.7834539,56.5969657 29.669868,56.6472396 C27.393555,57.6413102 25.033723,57.9763284 22.5619754,57.8060732 C20.6280908,57.6746852 18.8280455,57.1417401 17.1069258,56.2910978 C14.4098854,54.9544045 12.3068746,52.9328883 10.7565515,50.3513887 C9.55617327,48.3533195 8.74123571,46.1746446 8.69884977,43.8276157 C8.61470428,38.5898395 8.65980459,33.2107474 8.63537526,27.9714927 C8.62994652,27.5057201 8.69091546,27.4311542 9.03188216,27.1508458 C9.57538266,26.7036619 10.2195237,26.1381865 10.7507051,25.6753712 C11.6044791,24.9385845 12.4563738,24.1982069 13.302631,23.4622651 C11.403198,21.3102058 10.1397629,18.5630982 9.81758804,15.5339923 C7.00654412,17.9648815 4.2145008,20.4247098 1.38048913,22.8329969" id="Fill-13" fill="#FFFFFF"></path>
                        <path d="M49.2804595,23.1050683 C46.3616437,20.7144129 43.1079101,17.9847038 40.1899542,15.5339923 C39.8709439,18.5477564 38.584799,21.2755689 36.637847,23.4224175 C38.0873664,24.6374478 39.6867175,25.9765941 41.1179648,27.1450545 C41.5739088,27.5167704 41.4898569,27.4364848 41.4862025,28.0227169 C41.4520228,32.7766336 41.4328908,38.2082363 41.4776038,42.9613101 C41.5051195,45.3332111 41.0840001,47.5965896 40.2338074,49.7986476 C38.8917712,53.2776886 36.6941682,56.1454214 33.688291,58.4094321 C30.3879097,60.9029204 26.6229856,62.2787325 22.5037967,62.7355805 C20.7247335,62.9338711 18.967812,62.7994297 17.2048713,62.499149 C15.4692314,62.2049794 13.8049604,61.7352772 12.2232366,61.0011174 C11.1763495,60.5124502 10.1640721,59.9538228 8.97466216,59.3446219 C9.25949283,59.6750359 9.40567009,59.8954525 9.60128964,60.0598166 C10.3775338,60.7115836 11.14088,61.38063 11.9618373,61.979084 C14.1056986,63.5411755 16.4827987,64.6792919 19.0340216,65.4244093 C20.9951614,65.9948372 23.0081082,66.2987001 25.0750115,66.3593884 C28.5925091,66.4639071 31.9960744,65.9512174 35.2020855,64.5676085 C41.6272205,61.7947012 46.1492568,57.20262 48.5392548,50.686214 C49.4115891,48.3109414 49.8734797,45.8661302 49.8582895,43.3231219 C49.8213153,37.2692534 49.8249697,30.639689 49.8673181,24.5864528 C49.8734797,23.6879288 49.9539497,23.6609562 49.2804595,23.1050683" id="Fill-14" fill="#FFFFFF"></path>
                        <path d="M26.6253424,42.3654337 L21.9631052,42.3654337 L18.8467905,51.5931841 C18.8467905,51.5931841 20.5049967,53.6628827 24.2500207,53.6628827 C28.5467934,53.6628827 30.129223,51.657767 30.129223,51.657767 L26.6253424,42.3654337" id="Fill-15" fill="#FFFFFF"></path>
                        <path d="M30.1290393,40.2869616 C30.1057624,43.0158695 27.878101,45.2116776 25.1517689,45.1896314 C22.4248078,45.1665353 20.2309084,42.9339834 20.2573308,40.2042357 C20.2785107,37.474278 22.5072205,35.2811994 25.2331332,35.3047154 C27.9605138,35.3255019 30.1523162,37.5578438 30.1290393,40.2869616" id="Fill-16" fill="#FFFFFF"></path>
                    </g>
                </g>
            </g>
        </g>
    </g>
</svg>